<svg xmlns="http://www.w3.org/2000/svg" xmlns:xlink="http://www.w3.org/1999/xlink" version="1.1" id="Layer_1" x="0px" y="0px" width="77.604px" height="77.343px" viewBox="0 0 77.604 77.343" enable-background="new 0 0 77.604 77.343" xml:space="preserve">
<g>
	<g>
		
			<rect x="32.922" y="-11.861" transform="matrix(0.7071 0.7071 -0.7071 0.7071 34.9376 -14.7312)" fill="#FFFFFF" width="4.657" height="93.338"/>
		
			<rect x="38.013" y="-8.081" transform="matrix(-0.7071 -0.7071 0.7071 -0.7071 39.3446 93.4733)" fill="#FFFFFF" width="2.036" height="93.338"/>
		<path fill="#FFFFFF" d="M24.958,63.808l52.646-52.647l-4.146-4.146l-66,66l4.146,4.146l3.646-3.646l-1.977-1.977l0.707-0.707    l1.977,1.977l2.293-2.293l-2-2l0.707-0.707l2,2l2.293-2.293l-2-2l0.707-0.707l2,2l2.293-2.293l-2-2l0.707-0.707L24.958,63.808z     M73.951,10.801l1.946,1.871l-0.693,0.721l-1.946-1.871L73.951,10.801z M70.951,13.801l1.946,1.871l-0.693,0.721l-1.946-1.871    L70.951,13.801z M67.951,16.801l1.946,1.871l-0.693,0.721l-1.946-1.871L67.951,16.801z M64.951,19.801l1.946,1.871l-0.693,0.721    l-1.946-1.871L64.951,19.801z M61.951,22.801l1.946,1.871l-0.693,0.721l-1.946-1.871L61.951,22.801z M58.951,25.801l1.946,1.871    l-0.693,0.721l-1.946-1.871L58.951,25.801z M55.951,28.801l1.946,1.871l-0.693,0.721l-1.946-1.871L55.951,28.801z M52.951,31.801    l1.946,1.871l-0.693,0.721l-1.946-1.871L52.951,31.801z M49.951,34.801l1.946,1.871l-0.693,0.721l-1.946-1.871L49.951,34.801z     M46.951,37.801l1.946,1.871l-0.693,0.721l-1.946-1.871L46.951,37.801z M43.951,40.801l1.946,1.871l-0.693,0.721l-1.946-1.871    L43.951,40.801z M40.951,43.8l1.946,1.871l-0.693,0.721l-1.946-1.871L40.951,43.8z M37.951,46.8l1.946,1.871l-0.693,0.721    l-1.946-1.871L37.951,46.8z M34.951,49.8l1.946,1.871l-0.693,0.721l-1.946-1.871L34.951,49.8z M31.951,52.8l1.946,1.871    l-0.693,0.721l-1.946-1.871L31.951,52.8z M28.951,55.8l1.946,1.871l-0.693,0.721l-1.946-1.871L28.951,55.8z M25.951,58.8    l1.946,1.871l-0.693,0.721l-1.946-1.871L25.951,58.8z M12.11,76.503l-1.871-2l0.73-0.684l1.871,2L12.11,76.503z"/>
	</g>
	<g>
		<polygon fill="#FFFFFF" points="68.562,64.927 47.562,44.927 38.562,53.927 58.562,74.927   "/>
		<path fill="#FFFFFF" d="M60.562,75.927c1.531,1.416,5.406,1.416,7,0l3-3c1.756-1.756,1.328-5.057,0-7L60.562,75.927z"/>
	</g>
	<g>
		
			<rect x="16.698" y="27.013" transform="matrix(0.7071 -0.7071 0.7071 0.7071 -13.3465 24.6331)" fill="#FFFFFF" width="12.728" height="2.828"/>
		
			<rect x="20.698" y="29.599" transform="matrix(0.7071 -0.7071 0.7071 0.7071 -15.0034 28.6331)" fill="#FFFFFF" width="12.728" height="5.657"/>
		<path fill="#FFFFFF" d="M25.562,21.927c-3-3-5-2-5-2l-6,6c0,0-1,2,2,5L25.562,21.927z"/>
	</g>
	<g>
		<line fill="#FFFFFF" x1="13.908" y1="25.271" x2="5.494" y2="6"/>
		<g>
			<polygon fill="#FFFFFF" points="4.562,5.927 2.562,2.927 9.562,20.927 12.562,23.927    "/>
			<path fill="#FFFFFF" d="M6.562,7.927l7,15l1,1c0,0,0.999-1,1-1c0.229-0.24,2-2,2-2l1-3L6.562,7.927z"/>
		</g>
	</g>
</g>
</svg>