<svg xmlns="http://www.w3.org/2000/svg" xmlns:xlink="http://www.w3.org/1999/xlink" version="1.1" id="Layer_1" x="0px" y="0px" width="76.416px" height="74.415px" viewBox="0 0 76.416 74.415" enable-background="new 0 0 76.416 74.415" xml:space="preserve">
<g>
	<g>
		<path fill="#FFFFFF" d="M49.1,17.415l-8.1,9l9,9l9-8.1c-2.527-0.212-5.066-1.965-7-3.9C50.139,21.555,49.367,19.842,49.1,17.415z"/>
		<path fill="#FFFFFF" d="M72.707,3.708C70.35,1.352,66.994,0,63.5,0s-6.85,1.352-9.207,3.708c-2.357,2.357-3.709,5.713-3.709,9.207    c0,3.495,1.352,6.851,3.709,9.207c2.356,2.357,5.713,3.709,9.207,3.709s6.85-1.352,9.207-3.709s3.709-5.712,3.709-9.207    C76.416,9.421,75.064,6.065,72.707,3.708z M71.293,5.122c1.984,1.985,3.123,4.825,3.123,7.793c0,2.428-0.772,4.763-2.137,6.622    c-1.788-0.815-4.72-3.267-8.926-7.475c-3.83-3.829-5.705-6.079-6.517-7.895C58.702,2.784,61.054,2,63.5,2    C66.468,2,69.309,3.138,71.293,5.122z M70.429,21.471l-0.303-0.302c0.069-0.069,0.143-0.093,0.163-0.096    c-0.616,0.104-3.608-1.391-8.582-6.365c-4.81-4.809-6.642-8.103-6.553-8.797c-0.003,0.022-0.028,0.104-0.104,0.18l-0.105-0.105    c0.239-0.301,0.491-0.592,0.763-0.863c0.105-0.105,0.223-0.199,0.334-0.3c0.926,1.9,2.865,4.208,6.605,7.946    c4.172,4.174,7.032,6.591,8.98,7.568c-0.111,0.124-0.217,0.254-0.334,0.372C71.021,20.979,70.73,21.232,70.429,21.471z     M54.757,9.627c1.275,1.895,3.242,4.202,5.536,6.495c2.282,2.282,4.556,4.215,6.402,5.441c0.568,0.378,1.227,0.779,1.89,1.075    c-0.824,0.412-1.707,0.719-2.626,0.919c-2.158-0.546-4.179-2.067-7.605-5.496c-3.495-3.495-4.92-6.047-5.502-7.581    c0.193-0.897,0.492-1.759,0.887-2.567C54.036,8.516,54.407,9.107,54.757,9.627z M55.707,20.708    c-1.984-1.984-3.123-4.825-3.123-7.793c0-0.188,0.018-0.375,0.027-0.562c0.875,1.635,2.395,3.776,5.035,6.416    c2.594,2.594,4.462,4.16,6.197,5.046c-0.115,0.003-0.229,0.017-0.344,0.017C60.532,23.831,57.691,22.692,55.707,20.708z"/>
		<polygon fill="#FFFFFF" points="15.57,54.055 22.359,60.846 34,50.272 26.144,42.416   "/>
		
			<rect x="12.224" y="58.018" transform="matrix(-0.7071 -0.7071 0.7071 -0.7071 -12.9307 113.4232)" fill="#FFFFFF" width="9.603" height="2.744"/>
		<polygon fill="#FFFFFF" points="3,67.415 9,73.415 18.48,64.725 11.689,57.936   "/>
	</g>
	<path fill="#FFFFFF" d="M11,1.415l-2,2l7,7l-7,7l-7-7l-2,2l62,62l2-2l-6-6l7-7l6,6l2-2L11,1.415z M60,70.415h1v1h-1V70.415z    M60,52.415h1v1h-1V52.415z M57,49.415h1v1h-1V49.415z M54,46.415h1v1h-1V46.415z M51,43.415h1v1h-1V43.415z M48,40.415h1v1h-1   V40.415z M45,37.415h1v1h-1V37.415z M42,34.415h1v1h-1V34.415z M39,31.415h1v1h-1V31.415z M36,28.415h1v1h-1V28.415z M33,25.415h1   v1h-1V25.415z M30,22.415h1v1h-1V22.415z M27,19.415h1v1h-1V19.415z M24,16.415h1v1h-1V16.415z M21,13.415h1v1h-1V13.415z    M18,10.415h1v1h-1V10.415z M13,5.415h-1v-1h1V5.415z M15,8.415v-1h1v1H15z M4,14.415H3v-1h1V14.415z M7,17.415H6v-1h1V17.415z    M10,20.415H9v-1h1V20.415z M17,11.415l11,11l-7,7l-11-11L17,11.415z M13,23.415h-1v-1h1V23.415z M16,26.415h-1v-1h1V26.415z    M19,29.415h-1v-1h1V29.415z M22,32.415h-1v-1h1V32.415z M28.945,23.512L40,34.415l-7,7l-11-11L28.945,23.512z M25,35.415h-1v-1h1   V35.415z M28,38.415h-1v-1h1V38.415z M31,41.415h-1v-1h1V41.415z M34,44.415h-1v-1h1V44.415z M41,35.415l11,11l-7,7l-11-11   L41,35.415z M37,47.415h-1v-1h1V47.415z M40,50.415h-1v-1h1V50.415z M43,53.415h-1v-1h1V53.415z M46,56.415h-1v-1h1V56.415z    M49,59.415h-1v-1h1V59.415z M52,62.415h-1v-1h1V62.415z M55,65.415h-1v-1h1V65.415z M58,68.415h-1v-1h1V68.415z M57,65.415l-11-11   l6.945-7.13L64,58.415L57,65.415z M64,56.415h-1v-1h1V56.415z M67,59.415h-1v-1h1V59.415z M70,62.415h-1v-1h1V62.415z"/>
</g>
</svg>