<svg xmlns="http://www.w3.org/2000/svg" xmlns:xlink="http://www.w3.org/1999/xlink" version="1.1" id="Layer_1" x="0px" y="0px" width="80px" height="65px" viewBox="0 0 80 65" enable-background="new 0 0 80 65" xml:space="preserve">
<g>
	<g>
		<path fill="#FFFFFF" d="M80,5c0-2.761-2.238-5-5-5H5C2.238,0,0,2.239,0,5v43c0,2.762,2.238,5,5,5h70c2.762,0,5-2.238,5-5V5z     M41,50h-2v-2h2V50z M76,41c0,2.762-2.238,5-5,5H9c-2.762,0-5-2.238-5-5V8c0-2.761,2.238-5,5-5h62c2.762,0,5,2.239,5,5V41z"/>
		<rect x="35" y="51" fill="#FFFFFF" width="10" height="13"/>
		<g>
			<path fill="#FFFFFF" d="M62,64c0,0.55-1.35,1-3,1H21c-1.65,0-3-0.45-3-1s1.35-1,3-1h38C60.65,63,62,63.45,62,64z"/>
		</g>
	</g>
	<line fill="none" stroke="#FFFFFF" stroke-miterlimit="10" x1="76" y1="8" x2="66.5" y2="17.5"/>
	<line fill="none" stroke="#FFFFFF" stroke-miterlimit="10" x1="77" y1="11" x2="72" y2="16"/>
</g>
</svg>